{"title":"The Violators 2015 Movies HDRip XviD AAC New Source +Sample ☻rDX","uid":15110130,"size":738621874,"categoryP":"video","categoryS":"movies","magnet":"?xt=urn:btih:4b5abbac9cba88dbd2c7f7858ff1e8e53568a59b&amp;dn=The+Violators+2015+Movies+HDRip+XviD+AAC+New+Source+%2BSample+%E2%98%BBrDX&amp;tr=udp%3A%2F%2Ftracker.leechers-paradise.org%3A6969&amp;tr=udp%3A%2F%2Fzer0day.ch%3A1337&amp;tr=udp%3A%2F%2Fopen.demonii.com%3A1337&amp;tr=udp%3A%2F%2Ftracker.coppersurfer.tk%3A6969&amp;tr=udp%3A%2F%2Fexodus.desync.com%3A6969","seeders":0,"leechers":1,"uploader":"basicssom","files":2,"time":1466997863,"description":"----------------------------------------------------------------\r\nThe Violators 2015 English Movies HDRip XviD AAC New Source with Sample ☻rDX☻\r\n\r\nSCREEN SHOTS &amp; POSTER:\r\n  \nhttp://mobileshosting.com/2016/7/insurance/index.htm  \nhttp://mobileshosting.com/2016/7/insurance/1.html  \nhttp://mobileshosting.com/2016/7/insurance/2.html  \nhttp://mobileshosting.com/2016/7/insurance/3.html  \nhttp://mobileshosting.com/2016/7/insurance/4.html  \nhttp://mobileshosting.com/2016/7/insurance/5.html  \nhttp://mobileshosting.com/2016/7/insurance/6.html  \nhttp://mobileshosting.com/2016/7/insurance/7.html  \nhttp://mobileshosting.com/2016/7/insurance/8.html  \nhttp://mobileshosting.com/2016/7/insurance/9.html  \nhttp://mobileshosting.com/2016/7/insurance/10.html\r\n\r\nFormat                                   : Matroska\r\nFormat version                           : Version 4 / Version 2\r\nFile size                                : 693 MiB\r\nDuration                                 : 1h 36mn\r\nOverall bit rate                         : 1 005 Kbps\r\nMovie name                               : The Violators 2015 English Movies HDRip XviD AAC New Source ☻rDX☻\r\n\r\nVideo\r\nID                                       : 1\r\nFormat                                   : MPEG-4 Visual\r\nFormat profile                           : Advanced   \r\nFormat settings, BVOP                    : Yes\r\nFormat settings, QPel                    : No\r\nFormat settings, GMC                     : No warppoints\r\nFormat settings, Matrix                  : Default (H.263)\r\nCodec ID                                 : V_MS/VFW/FOURCC / XVID\r\nCodec ID/Hint                            : XviD\r\nDuration                                 : 1h 36mn\r\nBit rate                                 : 857 Kbps\r\nWidth                                    : 640 pixels\r\nHeight                                   : 288 pixels\r\nDisplay aspect ratio                     : 2.222\r\nFrame rate mode                          : Constant\r\nFrame rate                               : 25.000 fps\r\nColor space                              : YUV\r\nChroma subsampling                       : 4:2:0\r\nBit depth                                : 8 bits\r\nScan type                                : Progressive\r\nCompression mode                         : Lossy\r\nBits/(Pixel*Frame)                       : 0.186\r\nStream size                              : 591 MiB (85%)\r\nTitle                                    : ☻rDX☻\r\nWriting library                          : XviD 65\r\nDefault                                  : Yes\r\nForced                                   : No\r\n\r\nAudio\r\nID                                       : 2\r\nFormat                                   : MPEG Audio\r\nFormat version                           : Version 1\r\nFormat profile                           : Layer 3\r\nMode                                     : Joint stereo\r\nMode extension                           : MS Stereo\r\nCodec ID                                 : A_MPEG/L3\r\nCodec ID/Hint                            : MP3\r\nDuration                                 : 1h 36mn\r\nBit rate mode                            : Constant\r\nBit rate                                 : 128 Kbps\r\nChannel(s)                               : 2 channels\r\nSampling rate                            : 48.0 KHz\r\nCompression mode                         : Lossy\r\nStream size                              : 88.3 MiB (13%)\r\nTitle                                    : ☻rDX☻\r\nWriting library                          : LAME3.99r\r\nEncoding settings                        : -m j -V 4 -q 3 -lowpass 17 -b 128\r\nDefault                                  : Yes\r\nForced                                   : No\r\n\r\nIMDB \nhttp://gb.imdb.com/title/tt3876702/","torrent":{"xt":"urn:btih:4b5abbac9cba88dbd2c7f7858ff1e8e53568a59b","amp;dn":"The+Violators+2015+Movies+HDRip+XviD+AAC+New+Source+%2BSample+%E2%98%BBrDX","amp;tr":["udp%3A%2F%2Ftracker.leechers-paradise.org%3A6969","udp%3A%2F%2Fzer0day.ch%3A1337","udp%3A%2F%2Fopen.demonii.com%3A1337","udp%3A%2F%2Ftracker.coppersurfer.tk%3A6969","udp%3A%2F%2Fexodus.desync.com%3A6969"],"infoHash":"4b5abbac9cba88dbd2c7f7858ff1e8e53568a59b","infoHashBuffer":{"type":"Buffer","data":[75,90,187,172,156,186,136,219,210,199,247,133,143,241,232,229,53,104,165,155]},"announce":[],"urlList":[]}}